<svg id="Layer_1" data-name="Layer 1" xmlns="http://www.w3.org/2000/svg" xmlns:xlink="http://www.w3.org/1999/xlink" viewBox="0 0 2147 1983"><defs><style>.cls-1{fill:url(#linear-gradient);}.cls-2{fill:url(#linear-gradient-2);}.cls-3{fill:url(#linear-gradient-3);}</style><linearGradient id="linear-gradient" x1="1604.67" y1="1000.98" x2="1769.03" y2="1768.12" gradientUnits="userSpaceOnUse"><stop offset="0.43" stop-color="#fff"/><stop offset="0.74" stop-color="#e8e8e8"/><stop offset="0.86" stop-color="#d5d5d5"/><stop offset="1" stop-color="#bababa"/></linearGradient><linearGradient id="linear-gradient-2" x1="355.54" y1="1009.23" x2="520.11" y2="1777.36" xlink:href="#linear-gradient"/><linearGradient id="linear-gradient-3" x1="881.83" y1="251.6" x2="1223.27" y2="1845.22" xlink:href="#linear-gradient"/></defs><path class="cls-1" d="M1883.7,1501.57c0,288.64-76.33,265.72-170.89,262.33-276.59-9.91-116.78,11.33-9.83-271.49,102.1-270-85.21-513.48,9.4-513.48S1883.7,1212.93,1883.7,1501.57Z"/><path class="cls-2" d="M513,1517.41c81,281,217.72,232.09-34.34,246.87-94.45,5.53-171.75,26.31-171.75-262.33S406.36,979.41,501,979.41,433.09,1240,513,1517.41Z"/><path class="cls-3" d="M1089.19,215.65c-391.59,0-610.82,601-610.82,1100.1s187.24,511.89,578.83,511.89,677.51-12.82,677.51-511.89S1480.79,215.65,1089.19,215.65Zm363.29,916.91a24,24,0,0,1-24,24h-643a24,24,0,0,1-24-24V713.87a24,24,0,0,1,24-24h643a24,24,0,0,1,24,24Z"/></svg>